{"accessors" : [{"bufferView" : 0, "byteOffset" : 0, "componentType" : 5123, "count" : 2862, "type" : "SCALAR", "max" : [2360], "min" : [0]}, {"bufferView" : 1, "byteOffset" : 0, "componentType" : 5126, "count" : 2361, "type" : "VEC3", "max" : [1, 1.1018892526626587, 1], "min" : [-1, -1, -1], "name" : "POSITION"}, {"bufferView" : 1, "byteOffset" : 12, "componentType" : 5126, "count" : 2361, "type" : "VEC3", "max" : [0.999949038028717, 1.0000044107437134, 0.9999805688858032], "min" : [-0.9986191391944885, -1.0000042915344238, -0.999992311000824], "name" : "NORMAL"}, {"bufferView" : 1, "byteOffset" : 24, "componentType" : 5126, "count" : 2361, "type" : "VEC2", "max" : [1, 0.9900000095367432], "min" : [0, 0], "name" : "TEXCOORD_0"}], "asset" : {"generator" : "Aspose.3D 21.9", "version" : "2.0"}, "buffers" : [{"uri" : "data:application/octet-stream;base64,", "byteLength" : 97316}], "bufferViews" : [{"buffer" : 0, "byteOffset" : 0, "byteLength" : 5724, "target" : 34963}, {"buffer" : 0, "byteOffset" : 5728, "byteLength" : 91584, "byteStride" : 32, "target" : 34962}], "images" : [{"uri" : "data:image/png;base64,"}], "materials" : [{"name" : "Material.001", "pbrMetallicRoughness" : {"baseColorFactor" : [1, 1, 1, 1], "baseColorTexture" : {"index" : 0, "texCoord" : 0}, "metallicFactor" : 0, "roughnessFactor" : 0.5}, "emissiveFactor" : [0, 0, 0], "alphaMode" : "OPAQUE", "doubleSided" : true}], "meshes" : [{"primitives" : [{"attributes" : {"POSITION" : 1, "NORMAL" : 2, "TEXCOORD_0" : 3}, "indices" : 0, "material" : 0, "mode" : 4}]}], "nodes" : [{"matrix" : [0.831378441499273, -0.5553021565354939, 0.021199511850279684, 0, 0.05540169062989672, 0.08312177761607978, 0.0046195006873091, 0, -0.04327377680577982, -0.026660756693637877, 0.9987074568793631, 0, 0, 0, 0.1811433583498001, 1], "mesh" : 0, "name" : "Cylinder"}], "samplers" : [{"magFilter" : 9729, "minFilter" : 9987, "wrapS" : 10497, "wrapT" : 10497}], "scene" : 0, "scenes" : [{"nodes" : [0]}], "textures" : [{"sampler" : 0, "source" : 0}]}